<?xml version="1.0" encoding="UTF-8"?>
<svg version="1.1" xmlns="http://www.w3.org/2000/svg" width="829" height="240">
<path d="M0 0 C11.81299764 11.17748827 19.90592283 23.77538495 20.92578125 40.4609375 C21.37786067 58.55425065 17.217655 74.83968779 4.625 88.5 C2.34622527 90.88806757 0.01576978 93.22280379 -2.3125 95.5625 C-3.66563993 96.94299891 -5.01873013 98.32354694 -6.37095642 99.7049408 C-8.84402273 102.22733228 -11.32821607 104.73866508 -13.8125 107.25 C-14.30098419 107.74579559 -14.78946838 108.24159119 -15.29275513 108.75241089 C-16.70013807 110.1775815 -18.11556597 111.59479365 -19.53125 113.01171875 C-20.35560547 113.84018311 -21.17996094 114.66864746 -22.02929688 115.5222168 C-26.45627656 119.47819084 -30.02222566 120.0606911 -35.8359375 119.94921875 C-39.93558884 119.30905237 -41.54246791 117.6095353 -44.3125 114.5625 C-47.03365953 109.96039862 -47.40347319 105.76270072 -46.3125 100.5625 C-44.6875 98.25 -44.6875 98.25 -42.5 95.9375 C-41.68297607 95.07044434 -40.86595215 94.20338867 -40.02416992 93.31005859 C-37.25096217 90.50014772 -34.44723667 87.72493651 -31.61328125 84.9765625 C-31.12482224 84.50270111 -30.63636322 84.02883972 -30.13310242 83.5406189 C-26.10550899 79.64120738 -26.10550899 79.64120738 -24.09741211 77.74511719 C-15.33062848 69.44403816 -7.60869564 60.27256581 -7.22265625 47.6171875 C-7.68811592 37.90220875 -10.47181238 30.96523946 -16.875 23.625 C-17.679375 22.944375 -18.48375 22.26375 -19.3125 21.5625 C-20.055 20.86125 -20.7975 20.16 -21.5625 19.4375 C-30.05973001 13.64393409 -40.33744919 13.30813736 -50.3125 14.5625 C-62.12113262 17.77879862 -71.19313114 29.28428622 -79.609375 37.62109375 C-80.44664124 38.45028824 -81.28390747 39.27948273 -82.14654541 40.13380432 C-83.89911148 41.8726577 -85.65021667 43.61298464 -87.39990234 45.35473633 C-89.17768205 47.12094237 -90.95993347 48.88265856 -92.74658203 50.63989258 C-95.35663485 53.20712235 -97.95303935 55.7874914 -100.546875 58.37109375 C-101.33761414 59.1443248 -102.12835327 59.91755585 -102.9430542 60.71421814 C-110.29464672 68.09456106 -116.38007885 75.83753158 -116.625 86.5625 C-116.47799769 97.59992328 -113.16633315 104.47549794 -105.43359375 112.2734375 C-102.27190893 115.68549515 -99.87968091 118.78278877 -99.9375 123.5625 C-100.14037645 128.46842137 -102.09796093 131.19614355 -105.3125 134.8125 C-108.77118707 137.83885118 -112.4285485 138.04876096 -116.8515625 137.94140625 C-123.09593657 136.97997088 -126.93645584 133.34326303 -130.703125 128.46875 C-141.58277853 112.66410447 -145.89055314 96.60717069 -144.3125 77.5625 C-142.11668093 65.78816206 -136.90235924 56.84444119 -128.7890625 48.21484375 C-126.86438327 46.15355479 -125.01576423 44.06807397 -123.17773438 41.93164062 C-119.27308537 37.46212451 -115.1667409 33.22056279 -110.9921875 29.00390625 C-110.21167023 28.21531723 -109.43115295 27.42672821 -108.62698364 26.61424255 C-106.98293995 24.95645289 -105.33739842 23.30014742 -103.69042969 21.64526367 C-102.02803304 19.97135413 -100.37010932 18.29298998 -98.71679688 16.61010742 C-71.55896225 -11.03191569 -34.35011052 -30.14606715 0 0 Z " fill="#0483FE" transform="translate(217.3125,16.4375)"/>
<path d="M0 0 C12.38329213 7.25466964 18.80728154 22.91799862 23 36 C26.9759885 51.23701401 23.79472416 67.82400101 16.25 81.375 C8.88390574 92.54414041 -1.55835894 101.66995423 -11.01464844 111.03051758 C-14.92368981 114.90831354 -18.79229399 118.81353409 -22.58984375 122.80078125 C-41.40206819 142.30760005 -41.40206819 142.30760005 -53 147 C-54.08796875 147.44214844 -55.1759375 147.88429687 -56.296875 148.33984375 C-71.98162479 153.70663026 -89.23176867 152.24002332 -104.125 145.3125 C-118.10910758 137.88230185 -128.21636839 126.79240359 -134 112 C-139.23452173 94.36064942 -137.45923478 78.0033778 -129.3046875 61.51171875 C-123.86463687 52.44986623 -115.20147936 45.06603566 -107.75 37.6875 C-106.87859375 36.82060547 -106.0071875 35.95371094 -105.109375 35.06054688 C-103.45219563 33.41220916 -101.79283495 31.76606031 -100.13085938 30.12255859 C-98.4226974 28.42105078 -96.74710233 26.69648483 -95.078125 24.95703125 C-91.60621777 21.6874344 -87.93023479 21.55181257 -83.359375 21.57421875 C-79.26065882 22.31388773 -76.67060627 24.93198208 -74 28 C-72.87155542 30.25688915 -72.7695955 31.67710616 -72.6875 34.1875 C-72.63142578 35.29158203 -72.63142578 35.29158203 -72.57421875 36.41796875 C-73.63580864 42.85568359 -78.11651831 47.52672997 -82.68359375 51.87109375 C-83.22097672 52.39711685 -83.75835968 52.92313995 -84.31202698 53.46510315 C-86.58383888 55.6884449 -88.87321923 57.89335785 -91.16137695 60.09985352 C-104.57386696 73.06747961 -104.57386696 73.06747961 -109.375 90.75 C-109.1531574 99.87327697 -105.40309093 108.51172383 -99 115 C-91.47137296 121.27152791 -84.2160773 123.49816537 -74.50390625 123.24609375 C-61.58246092 121.9761233 -51.76127803 113.37281961 -43.01171875 104.5078125 C-41.65237968 103.15065628 -41.65237968 103.15065628 -40.26557922 101.76608276 C-38.36260835 99.86448467 -36.46669507 97.95621112 -34.57592773 96.04248047 C-32.1695558 93.60766635 -29.74786458 91.18880181 -27.3208952 88.77453804 C-24.98095631 86.4432787 -22.65304157 84.10017733 -20.32421875 81.7578125 C-19.46269699 80.89922638 -18.60117523 80.04064026 -17.71354675 79.15603638 C-9.51755543 70.831417 -4.1661073 63.43022398 -3.5625 51.4375 C-3.81880235 40.06052345 -7.89649032 31.05331947 -16.01171875 23.18359375 C-19.30295687 19.5690513 -20.01464102 16.92238396 -19.9375 12.0625 C-19.20916174 7.47570308 -17.29424106 5.21763081 -14 2 C-9.45408299 -0.71242865 -5.14626789 -1.1608679 0 0 Z " fill="#0382FE" transform="translate(139,87)"/>
<path d="M0 0 C5.92101493 7.25658221 8.66400762 15.70389338 8 25 C5.04322389 27.95677611 -3.45032518 26.67479009 -7.41601562 26.74316406 C-15.25749858 26.59377916 -15.25749858 26.59377916 -18.61328125 23.91015625 C-20 21.25 -20 21.25 -21.01953125 18.48828125 C-22.14836104 15.62348215 -23.02240757 14.88086649 -25.6875 13.4375 C-33.39377192 10.09326879 -42.07905418 9.48462196 -50.0625 12.5 C-53.93555792 14.51855505 -55.84893883 16.88486418 -57.47265625 20.91796875 C-58.69119988 25.72895952 -57.61524527 28.90134773 -55.25 33.125 C-48.52842956 40.22103119 -35.99604515 41.87557152 -26.9375 44.4375 C-13.68988585 48.18878444 -1.09178319 52.18487202 6.63671875 64.38671875 C11.59338937 73.88818765 11.84360904 83.64549476 9.27734375 93.8828125 C5.74052359 104.87604573 -0.98678156 112.3703135 -11 118 C-27.10067986 125.45617591 -46.23896172 126.37731392 -62.96630859 120.28369141 C-76.88300113 114.51956932 -83.18129122 106.49480201 -89 93 C-89.97804904 89.85638807 -90.1057211 87.0348036 -90.0625 83.75 C-90.05347656 82.85796875 -90.04445313 81.9659375 -90.03515625 81.046875 C-90.02355469 80.37140625 -90.01195312 79.6959375 -90 79 C-86.04172765 78.94214353 -82.0835633 78.90645283 -78.125 78.875 C-76.99707031 78.85824219 -75.86914062 78.84148437 -74.70703125 78.82421875 C-73.63066406 78.81777344 -72.55429687 78.81132812 -71.4453125 78.8046875 C-70.45031738 78.79421387 -69.45532227 78.78374023 -68.43017578 78.77294922 C-66 79 -66 79 -64 81 C-63.54100919 82.42455074 -63.12957457 83.86476366 -62.75 85.3125 C-61.22596801 90.05985963 -59.24020648 92.2275573 -55 95 C-46.53965067 99.23017467 -37.35036285 100.57962862 -28.25 97.6875 C-22.23220657 95.57540803 -22.23220657 95.57540803 -17.890625 91.1796875 C-16.92535376 88.81731315 -16.7007216 87.10545349 -16.6875 84.5625 C-16.66236328 83.45068359 -16.66236328 83.45068359 -16.63671875 82.31640625 C-17.25511219 78.37331691 -19.04046135 75.72823363 -22.20483398 73.32666016 C-29.59903117 69.31514352 -36.87504967 67.18953983 -45.0625 65.375 C-59.76272422 62.03296511 -72.26403317 58.77941741 -81.67578125 46.3203125 C-85.2540806 40.05037205 -86.53298094 34.31071074 -86.4375 27.125 C-86.43137695 26.33706055 -86.42525391 25.54912109 -86.41894531 24.73730469 C-86.25208125 18.50685713 -85.12024444 13.45770978 -82 8 C-81.443125 6.96875 -80.88625 5.9375 -80.3125 4.875 C-70.99412085 -6.71001192 -59.48715036 -11.89337434 -44.9375 -13.8125 C-28.68767137 -14.90668617 -11.93366425 -11.78663759 0 0 Z " fill="#111213" transform="translate(353,72)"/>
<path d="M0 0 C0.96953613 0.04310303 1.93907227 0.08620605 2.93798828 0.13061523 C4.17274902 0.19192627 5.40750977 0.2532373 6.6796875 0.31640625 C12.5578125 0.59484375 12.5578125 0.59484375 18.5546875 0.87890625 C18.8846875 16.05890625 19.2146875 31.23890625 19.5546875 46.87890625 C22.1946875 44.56890625 24.8346875 42.25890625 27.5546875 39.87890625 C38.47753794 34.41748103 48.97652136 33.0369473 60.88671875 36.71484375 C71.06979189 41.15782442 77.5576158 49.60624618 81.69433594 59.64770508 C84.31412155 67.07045671 84.05614446 74.50976413 83.9453125 82.265625 C83.93783488 83.8193132 83.93214916 85.37301096 83.92816162 86.92671204 C83.91302461 90.97926734 83.87384921 95.03123215 83.8293457 99.08355713 C83.78813231 103.23335792 83.77009545 107.38325586 83.75 111.53320312 C83.70734046 119.64870587 83.63923804 127.76373223 83.5546875 135.87890625 C79.40886863 135.90777376 75.26307534 135.92565952 71.1171875 135.94140625 C69.93318359 135.94978516 68.74917969 135.95816406 67.52929688 135.96679688 C66.40458984 135.97001953 65.27988281 135.97324219 64.12109375 135.9765625 C62.55790405 135.98441772 62.55790405 135.98441772 60.96313477 135.99243164 C58.5546875 135.87890625 58.5546875 135.87890625 57.5546875 134.87890625 C57.44693328 133.01922287 57.40841673 131.15549198 57.39697266 129.29272461 C57.38671051 128.0973558 57.37644836 126.901987 57.36587524 125.6703949 C57.35857391 124.36635208 57.35127258 123.06230927 57.34375 121.71875 C57.33078774 120.37170082 57.31697182 119.02465961 57.30233765 117.67762756 C57.24072673 111.9483264 57.18686904 106.21904135 57.15332031 100.48950195 C57.13225745 96.9868297 57.09685127 93.48454021 57.05256271 89.98208809 C57.03166715 88.00815642 57.02637105 86.03407932 57.02139282 84.06004333 C56.91048068 75.90934963 56.51393614 69.55797213 51.2421875 63.00390625 C46.48066185 59.23897899 41.80732603 58.41214474 35.86328125 58.5625 C30.70518192 59.26944762 26.86403524 61.60401503 23.1796875 65.19140625 C18.73714589 72.5386866 19.23096196 80.30285157 19.17578125 88.65234375 C19.14982308 90.66779013 19.1238601 92.68323646 19.0976038 94.69867897 C19.06334273 97.50406836 19.03767125 100.30951032 19.01208496 103.11499023 C18.96617174 108.05052096 18.91126593 112.9859401 18.84938049 117.92129517 C18.81733241 120.54654095 18.79047113 123.17185588 18.76914978 125.79721069 C18.75565994 126.97578644 18.7421701 128.15436218 18.72827148 129.36865234 C18.71875961 130.41121185 18.70924774 131.45377136 18.69944763 132.52792358 C18.5546875 134.87890625 18.5546875 134.87890625 17.5546875 135.87890625 C15.78609557 135.97837078 14.01357299 136.00970842 12.2421875 136.01171875 C11.16710937 136.01300781 10.09203125 136.01429688 8.984375 136.015625 C7.85257812 136.01175781 6.72078125 136.00789062 5.5546875 136.00390625 C3.85699219 136.00970703 3.85699219 136.00970703 2.125 136.015625 C1.04992187 136.01433594 -0.02515625 136.01304687 -1.1328125 136.01171875 C-2.12667969 136.01059082 -3.12054688 136.00946289 -4.14453125 136.00830078 C-6.4453125 135.87890625 -6.4453125 135.87890625 -7.4453125 134.87890625 C-7.54158363 133.14531027 -7.56718818 131.40775979 -7.56556702 129.67149353 C-7.56694168 128.54262222 -7.56831635 127.41375092 -7.56973267 126.25067139 C-7.56613739 125.0012677 -7.56254211 123.75186401 -7.55883789 122.46459961 C-7.55898392 121.15747513 -7.55912994 119.85035065 -7.5592804 118.50361633 C-7.55956836 114.90873526 -7.55367178 111.31388728 -7.54670644 107.71901393 C-7.54047276 103.96604373 -7.53986909 100.21307285 -7.53868103 96.46009827 C-7.53556776 89.34859799 -7.52735442 82.237113 -7.51733154 75.12561947 C-7.50617028 67.03143559 -7.50065992 58.93725099 -7.49563611 50.84306133 C-7.48517181 34.188334 -7.46757244 17.53362207 -7.4453125 0.87890625 C-4.79709238 -0.44520381 -2.95593056 -0.14001776 0 0 Z " fill="#0F1011" transform="translate(380.4453125,57.12109375)"/>
<path d="M0 0 C0.86625 0.5775 1.7325 1.155 2.625 1.75 C11.92078138 10.55652972 17.81726236 22.62203058 18.3359375 35.390625 C18.6499461 55.75805105 18.6499461 55.75805105 14 65 C13.57589844 65.86367187 13.15179687 66.72734375 12.71484375 67.6171875 C6.12030208 79.70411902 -3.87361775 87.31778359 -16.8737793 91.62011719 C-30.65997447 95.48472955 -46.30518657 93.94999733 -58.953125 87.4921875 C-71.52382902 80.10775754 -78.82396894 69.13655764 -82.875 55.25 C-86.31263345 39.61695265 -83.86462192 24.81599619 -75.9375 10.9765625 C-68.89518749 0.15752595 -57.94825933 -6.62891618 -45.4375 -9.5078125 C-44.633125 -9.67023438 -43.82875 -9.83265625 -43 -10 C-41.3603125 -10.37125 -41.3603125 -10.37125 -39.6875 -10.75 C-25.11702001 -11.73782915 -11.66593116 -8.95864756 0 0 Z M-51 20 C-56.94567878 28.34046606 -58.76758013 37.16216105 -57.5390625 47.26171875 C-56.00376581 55.06058094 -52.9791112 62.60415881 -46.21875 67.21484375 C-39.63509307 70.88549374 -33.26072148 71.80557222 -25.9375 70 C-19.76674181 67.86950495 -14.96313036 64.37430813 -11.65234375 58.68359375 C-7.16075365 48.91156797 -6.42062343 38.58640279 -9.96484375 28.31640625 C-13.06993966 21.36802182 -17.85148498 15.87173103 -25 13 C-34.97568172 10.62413498 -43.80495798 12.47791061 -51 20 Z " fill="#101112" transform="translate(557,103)"/>
<path d="M0 0 C1.12148438 0.04833984 2.24296875 0.09667969 3.3984375 0.14648438 C5.161875 0.2305957 5.161875 0.2305957 6.9609375 0.31640625 C8.73597656 0.3947168 8.73597656 0.3947168 10.546875 0.47460938 C13.47681311 0.60456631 16.40643423 0.73954153 19.3359375 0.87890625 C21.77722863 6.32489868 23.7217529 11.83358369 25.55078125 17.51171875 C25.84779434 18.42541229 26.14480743 19.33910583 26.45082092 20.28048706 C27.07673397 22.20798008 27.70109042 24.13597918 28.32397461 26.06445312 C29.26411353 28.97504007 30.208753 31.88413374 31.15429688 34.79296875 C31.76579644 36.67832982 32.37712719 38.56374565 32.98828125 40.44921875 C33.28471527 41.36173401 33.58114929 42.27424927 33.88656616 43.2144165 C35.16047818 47.15450687 36.415738 51.09422061 37.56298828 55.07324219 C37.90185059 56.2440332 38.24071289 57.41482422 38.58984375 58.62109375 C38.86256104 59.60706543 39.13527832 60.59303711 39.41625977 61.60888672 C40.22193262 64.20942584 40.22193262 64.20942584 43.3359375 65.87890625 C43.43531113 65.30499649 43.53468475 64.73108673 43.6370697 64.13978577 C44.96896245 56.95046798 46.99989258 50.08659075 49.21484375 43.125 C49.58697495 41.94293472 49.95910614 40.76086945 50.34251404 39.54298401 C51.124201 37.06391846 51.90842539 34.58565169 52.69506836 32.1081543 C53.50214257 29.56510913 54.30695703 27.02151193 55.10717773 24.47631836 C56.26445943 20.7955623 57.42621977 17.1162554 58.58984375 13.4375 C59.13047203 11.72052162 59.13047203 11.72052162 59.68202209 9.96885681 C60.01584396 8.92008865 60.34966583 7.8713205 60.69360352 6.79077148 C61.13422874 5.40038918 61.13422874 5.40038918 61.58375549 3.98191833 C62.3359375 1.87890625 62.3359375 1.87890625 63.3359375 0.87890625 C67.46957351 0.49420422 71.62551496 0.40862854 75.7734375 0.25390625 C76.94455078 0.20234375 78.11566406 0.15078125 79.32226562 0.09765625 C80.99772461 0.03191406 80.99772461 0.03191406 82.70703125 -0.03515625 C84.2528186 -0.09630615 84.2528186 -0.09630615 85.82983398 -0.15869141 C88.3359375 -0.12109375 88.3359375 -0.12109375 90.3359375 0.87890625 C88.98106341 6.65266618 87.2822428 12.16930136 85.2734375 17.74609375 C84.96989349 18.59824463 84.66634949 19.45039551 84.35360718 20.32836914 C83.3515145 23.13825429 82.34388483 25.94611644 81.3359375 28.75390625 C80.62818071 30.73315085 79.92066589 32.71248199 79.21337891 34.69189453 C77.32129006 39.98332407 75.42383877 45.27281721 73.5255127 50.56201172 C71.91429976 55.05455947 70.3074841 59.54867578 68.70037842 64.04269409 C67.09613592 68.52652892 65.4889665 73.00931017 63.88085938 77.49176025 C63.10958999 79.6423255 62.33906475 81.79315778 61.56933594 83.9442749 C54.64365072 103.28870439 54.64365072 103.28870439 51.0625 112.44921875 C50.62760254 113.56312988 50.19270508 114.67704102 49.74462891 115.82470703 C45.74704668 124.49190871 40.05503227 131.80807061 31.3359375 135.87890625 C20.8066293 139.55534068 10.04133178 140.28969466 -0.6640625 136.87890625 C-0.9940625 136.54890625 -1.3240625 136.21890625 -1.6640625 135.87890625 C-1.52129745 129.01520203 -0.56337254 122.46318106 1.3359375 115.87890625 C2.34914063 115.9253125 3.36234375 115.97171875 4.40625 116.01953125 C5.75778282 116.05707383 7.10934778 116.09347131 8.4609375 116.12890625 C9.12609375 116.16242188 9.79125 116.1959375 10.4765625 116.23046875 C15.62068727 116.33133394 18.43154904 115.17556317 22.3359375 111.87890625 C23.89301898 109.90744722 23.89301898 109.90744722 24.7734375 107.69140625 C25.10214844 106.99660156 25.43085937 106.30179687 25.76953125 105.5859375 C27.25707023 98.47652705 24.80227652 91.52647704 22.30078125 84.921875 C21.99012726 84.07652191 21.67947327 83.23116882 21.35940552 82.36019897 C20.33991939 79.59211549 19.30658383 76.82941674 18.2734375 74.06640625 C17.55871208 72.13118477 16.84510681 70.19554926 16.13256836 68.25952148 C14.64077363 64.20940371 13.14410385 60.16114011 11.64355469 56.11425781 C8.21934445 46.87211954 4.83627146 37.61500437 1.46170044 28.35464478 C0.41232191 25.47944819 -0.642302 22.60621579 -1.69750977 19.7331543 C-2.34150725 17.97061294 -2.98531622 16.20800268 -3.62890625 14.4453125 C-4.06999222 13.24979263 -4.06999222 13.24979263 -4.51998901 12.03012085 C-5.86495944 8.33214406 -7.04735626 4.78341853 -7.6640625 0.87890625 C-4.96635992 -0.46994504 -3.01132875 -0.13687858 0 0 Z " fill="#111113" transform="translate(736.6640625,94.12109375)"/>
<path d="M0 0 C1.12019531 -0.00128906 2.24039063 -0.00257812 3.39453125 -0.00390625 C4.57402344 -0.00003906 5.75351562 0.00382812 6.96875 0.0078125 C8.73798828 0.00201172 8.73798828 0.00201172 10.54296875 -0.00390625 C12.22326172 -0.00197266 12.22326172 -0.00197266 13.9375 0 C14.97326172 0.00112793 16.00902344 0.00225586 17.07617188 0.00341797 C19.46875 0.1328125 19.46875 0.1328125 20.46875 1.1328125 C20.62639405 2.91150976 20.71975677 4.69599726 20.78515625 6.48046875 C20.82705078 7.56005859 20.86894531 8.63964844 20.91210938 9.75195312 C20.95142578 10.88826172 20.99074219 12.02457031 21.03125 13.1953125 C21.07443359 14.33548828 21.11761719 15.47566406 21.16210938 16.65039062 C21.26857738 19.47770758 21.36920262 22.30524342 21.46875 25.1328125 C28.06875 25.1328125 34.66875 25.1328125 41.46875 25.1328125 C41.46875 32.3928125 41.46875 39.6528125 41.46875 47.1328125 C31.56875 47.6278125 31.56875 47.6278125 21.46875 48.1328125 C21.34507438 54.8771293 21.25437261 61.62078488 21.1940918 68.3659668 C21.16896072 70.66002908 21.13485031 72.9540114 21.09155273 75.24780273 C21.03084168 78.54691299 21.00252563 81.84496396 20.98046875 85.14453125 C20.95466232 86.16866623 20.9288559 87.19280121 20.90226746 88.24797058 C20.89504778 94.18192005 20.89504778 94.18192005 23.79223633 99.26879883 C29.2311312 103.05662719 34.97461182 102.1328125 41.46875 102.1328125 C41.46875 109.7228125 41.46875 117.3128125 41.46875 125.1328125 C29.60251894 127.50605871 16.71071497 127.00841369 6.03125 120.8203125 C-1.09471351 115.85283586 -4.53869226 109.58707956 -6.0612793 101.22021484 C-6.78216372 96.0025473 -6.65456126 90.76849302 -6.62890625 85.51171875 C-6.6274913 84.41182114 -6.62607635 83.31192352 -6.62461853 82.17869568 C-6.61904503 78.68420633 -6.60649739 75.18978231 -6.59375 71.6953125 C-6.58873158 69.3183603 -6.58416927 66.9414071 -6.58007812 64.56445312 C-6.56908428 58.75388128 -6.55183792 52.94335795 -6.53125 47.1328125 C-11.48125 47.1328125 -16.43125 47.1328125 -21.53125 47.1328125 C-21.55808201 43.65359515 -21.5780067 40.17458211 -21.59375 36.6953125 C-21.60212891 35.70208984 -21.61050781 34.70886719 -21.61914062 33.68554688 C-21.62236328 32.74130859 -21.62558594 31.79707031 -21.62890625 30.82421875 C-21.63414307 29.94967041 -21.63937988 29.07512207 -21.64477539 28.17407227 C-21.53125 26.1328125 -21.53125 26.1328125 -20.53125 25.1328125 C-18.17430046 25.22312824 -15.81971418 25.37969378 -13.46875 25.5703125 C-12.17839844 25.67214844 -10.88804687 25.77398437 -9.55859375 25.87890625 C-8.06005859 26.00458984 -8.06005859 26.00458984 -6.53125 26.1328125 C-6.53648682 25.3807251 -6.54172363 24.6286377 -6.54711914 23.85375977 C-6.56782227 20.46761908 -6.58088877 17.08149166 -6.59375 13.6953125 C-6.60212891 12.51130859 -6.61050781 11.32730469 -6.61914062 10.10742188 C-6.62236328 8.98271484 -6.62558594 7.85800781 -6.62890625 6.69921875 C-6.63676147 5.13602905 -6.63676147 5.13602905 -6.64477539 3.54125977 C-6.43122622 -0.98919732 -3.95971296 0.00431207 0 0 Z " fill="#111213" transform="translate(678.53125,68.8671875)"/>
<path d="M0 0 C0 7.59 0 15.18 0 23 C-3.07241293 24.02413764 -4.98623094 24.04134935 -8.1875 23.9375 C-15.48508709 23.89904104 -21.54306835 24.87855503 -27.4609375 29.4453125 C-32.85521245 34.89435166 -34.08424467 42.13892475 -34.20532227 49.5246582 C-34.22526749 50.60540115 -34.24521271 51.6861441 -34.26576233 52.79963684 C-34.28247482 53.9550145 -34.29918732 55.11039215 -34.31640625 56.30078125 C-34.33718735 57.49229294 -34.35796844 58.68380463 -34.37937927 59.91142273 C-34.44468179 63.71172403 -34.50367018 67.51209352 -34.5625 71.3125 C-34.60570356 73.89128305 -34.64931844 76.47005924 -34.69335938 79.04882812 C-34.80034345 85.36581366 -34.90214555 91.6828668 -35 98 C-37.54275549 99.27137774 -39.34808201 99.129425 -42.19140625 99.1328125 C-43.21814453 99.13410156 -44.24488281 99.13539063 -45.30273438 99.13671875 C-46.37845703 99.13285156 -47.45417969 99.12898438 -48.5625 99.125 C-49.64208984 99.12886719 -50.72167969 99.13273437 -51.83398438 99.13671875 C-53.3721582 99.13478516 -53.3721582 99.13478516 -54.94140625 99.1328125 C-55.88701416 99.13168457 -56.83262207 99.13055664 -57.80688477 99.12939453 C-60 99 -60 99 -61 98 C-61.3867557 94.05702331 -61.43420406 90.08369523 -61.5625 86.125 C-61.6042334 84.86010742 -61.6459668 83.59521484 -61.68896484 82.29199219 C-62.50886912 55.22042227 -62.4950972 28.04524038 -61 1 C-57.52300537 0.19133328 -54.47837556 -0.07549313 -50.91796875 0.12109375 C-49.98662109 0.16943359 -49.05527344 0.21777344 -48.09570312 0.26757812 C-47.13599609 0.32365234 -46.17628906 0.37972656 -45.1875 0.4375 C-44.20845703 0.48970703 -43.22941406 0.54191406 -42.22070312 0.59570312 C-39.81349515 0.72487038 -37.40669962 0.86168393 -35 1 C-34.67 5.29 -34.34 9.58 -34 14 C-33.505 13.13375 -33.01 12.2675 -32.5 11.375 C-28.42660796 5.32922866 -22.36901235 1.51151063 -15.4453125 -0.5390625 C-10.62577124 -1.44753833 -4.49470797 -2.24735398 0 0 Z " fill="#121214" transform="translate(646,94)"/>
<path d="M0 0 C1.12019531 -0.00128906 2.24039063 -0.00257812 3.39453125 -0.00390625 C4.57402344 -0.00003906 5.75351562 0.00382812 6.96875 0.0078125 C8.73798828 0.00201172 8.73798828 0.00201172 10.54296875 -0.00390625 C12.22326172 -0.00197266 12.22326172 -0.00197266 13.9375 0 C14.97326172 0.00112793 16.00902344 0.00225586 17.07617188 0.00341797 C19.46875 0.1328125 19.46875 0.1328125 20.46875 1.1328125 C20.62639405 2.91150976 20.71975677 4.69599726 20.78515625 6.48046875 C20.82705078 7.56005859 20.86894531 8.63964844 20.91210938 9.75195312 C20.95142578 10.88826172 20.99074219 12.02457031 21.03125 13.1953125 C21.07443359 14.33548828 21.11761719 15.47566406 21.16210938 16.65039062 C21.26857738 19.47770758 21.36920262 22.30524342 21.46875 25.1328125 C28.06875 25.1328125 34.66875 25.1328125 41.46875 25.1328125 C41.46875 25.7928125 41.46875 26.4528125 41.46875 27.1328125 C33.87875 27.1328125 26.28875 27.1328125 18.46875 27.1328125 C18.46875 18.5528125 18.46875 9.9728125 18.46875 1.1328125 C10.87875 1.1328125 3.28875 1.1328125 -4.53125 1.1328125 C-4.53125 9.7128125 -4.53125 18.2928125 -4.53125 27.1328125 C-7.17125 27.1328125 -9.81125 27.1328125 -12.53125 27.1328125 C-12.53125 26.8028125 -12.53125 26.4728125 -12.53125 26.1328125 C-10.55125 26.1328125 -8.57125 26.1328125 -6.53125 26.1328125 C-6.53648682 25.3807251 -6.54172363 24.6286377 -6.54711914 23.85375977 C-6.56782227 20.46761908 -6.58088877 17.08149166 -6.59375 13.6953125 C-6.60212891 12.51130859 -6.61050781 11.32730469 -6.61914062 10.10742188 C-6.62236328 8.98271484 -6.62558594 7.85800781 -6.62890625 6.69921875 C-6.63414307 5.65709229 -6.63937988 4.61496582 -6.64477539 3.54125977 C-6.43122622 -0.98919732 -3.95971296 0.00431207 0 0 Z " fill="#333434" transform="translate(678.53125,68.8671875)"/>
<path d="M0 0 C0.33 0 0.66 0 1 0 C2.23182417 4.7444478 2.07116195 9.32895291 2 14.1875 C1.9390794 21.0294481 2.100062 27.7987762 2.5625 34.625 C3.39939162 47.548457 3.39939162 47.548457 2 53 C1.34 53.66 0.68 54.32 0 55 C0 36.85 0 18.7 0 0 Z " fill="#030303" transform="translate(438,130)"/>
<path d="M0 0 C0 3 0 3 -2.3125 5.375 C-3.199375 6.24125 -4.08625 7.1075 -5 8 C-5.433125 8.77988281 -5.86625 9.55976562 -6.3125 10.36328125 C-8.35904644 13.56101006 -10.71221426 15.46727477 -13.6875 17.8125 C-15.17830078 18.99779297 -15.17830078 18.99779297 -16.69921875 20.20703125 C-17.45847656 20.79871094 -18.21773437 21.39039062 -19 22 C-19.66 21.67 -20.32 21.34 -21 21 C-14.07 14.07 -7.14 7.14 0 0 Z " fill="#1781FF" transform="translate(197,90)"/>
<path d="M0 0 C0.66 0.33 1.32 0.66 2 1 C1.67 1.99 1.34 2.98 1 4 C-6.59 4 -14.18 4 -22 4 C-22 3.01 -22 2.02 -22 1 C-14.74 1.33 -7.48 1.66 0 2 C0 1.34 0 0.68 0 0 Z " fill="#040505" transform="translate(359,94)"/>
<path d="M0 0 C6.59276654 2.2830075 12.90312247 7.15101166 16.0625 13.5 C16.5265625 14.7375 16.5265625 14.7375 17 16 C13.28631113 14.76210371 12.22645819 13.14775123 10 10 C10 9.34 10 8.68 10 8 C9.34 8 8.68 8 8 8 C8 7.34 8 6.68 8 6 C6.8553125 5.5978125 6.8553125 5.5978125 5.6875 5.1875 C3.12043161 4.05321397 1.76505092 3.13664059 0 1 C0 0.67 0 0.34 0 0 Z " fill="#303131" transform="translate(442,95)"/>
<path d="M0 0 C0.33 0.99 0.66 1.98 1 3 C-3.95 7.62 -8.9 12.24 -14 17 C-14.66 16.67 -15.32 16.34 -16 16 C-10.72 10.72 -5.44 5.44 0 0 Z " fill="#0978FF" transform="translate(104,183)"/>
<path d="M0 0 C0.66 0.99 1.32 1.98 2 3 C5.61239617 7.95414333 8.21802319 9.9593023 14 12 C14 12.33 14 12.66 14 13 C8.37829601 12.77054269 5.60367444 11.34939318 1.3828125 7.66796875 C-0.19965436 5.75917397 -0.69207943 4.44846522 -1 2 C-0.67 1.34 -0.34 0.68 0 0 Z " fill="#3F4040" transform="translate(294,99)"/>
<path d="M0 0 C0 3 0 3 -2.625 5.91796875 C-3.74249406 7.01550756 -4.86785643 8.10507895 -6 9.1875 C-6.57234375 9.74630859 -7.1446875 10.30511719 -7.734375 10.88085938 C-9.14962788 12.26073093 -10.57397155 13.63126734 -12 15 C-12.66 14.67 -13.32 14.34 -14 14 C-9.67106815 8.81580806 -5.23435005 4.27293882 0 0 Z " fill="#0472FE" transform="translate(145,178)"/>
<path d="M0 0 C0.33 0.66 0.66 1.32 1 2 C-1.10515339 5.72450216 -2.24267224 7.6795921 -6.25 9.375 C-7.61125 9.684375 -7.61125 9.684375 -9 10 C-8.06409496 8.8944811 -7.12620142 7.79064547 -6.1875 6.6875 C-5.66542969 6.07261719 -5.14335938 5.45773438 -4.60546875 4.82421875 C-3.12827531 3.14575321 -1.59960869 1.56117966 0 0 Z " fill="#499CFE" transform="translate(116,36)"/>
<path d="M0 0 C3 1 3 1 4.8125 2.875 C7.31850737 5.30940716 9.83619841 6.56190837 13 8 C13 8.33 13 8.66 13 9 C9.90805678 9.29240794 8.40184489 9.2622862 5.76171875 7.5390625 C5.07722656 6.90742188 4.39273437 6.27578125 3.6875 5.625 C2.99011719 4.99851563 2.29273438 4.37203125 1.57421875 3.7265625 C0 2 0 2 0 0 Z " fill="#343434" transform="translate(504,164)"/>
<path d="M0 0 C0.33 0 0.66 0 1 0 C1.63934602 5.11476819 -0.59466453 8.67254378 -3 13 C-3.66 13 -4.32 13 -5 13 C-4.54554036 11.58208592 -4.08625056 10.16571954 -3.625 8.75 C-3.24214844 7.56664062 -3.24214844 7.56664062 -2.8515625 6.359375 C-2.04826333 4.13372042 -1.10288338 2.09068328 0 0 Z " fill="#358CFE" transform="translate(10,148)"/>
<path d="M0 0 C0.66 0.66 1.32 1.32 2 2 C1.38125 2.556875 0.7625 3.11375 0.125 3.6875 C-2.06106379 6.06645178 -2.98785699 7.96357096 -4 11 C-4.66 10.67 -5.32 10.34 -6 10 C-4.79157144 5.56909529 -3.48331435 3.01887244 0 0 Z " fill="#2A2B2C" transform="translate(299,84)"/>
<path d="M0 0 C4.02550319 1.3418344 4.88285636 3.4227573 7 7 C7 7.66 7 8.32 7 9 C7.66 9.33 8.32 9.66 9 10 C8.01 10 7.02 10 6 10 C4.39453125 8.06640625 4.39453125 8.06640625 2.8125 5.5625 C2.28269531 4.73878906 1.75289062 3.91507813 1.20703125 3.06640625 C0 1 0 1 0 0 Z " fill="#2083FE" transform="translate(10,208)"/>
<path d="M0 0 C3.43595166 1.52708963 6.11912454 3.59927045 9 6 C4.32409833 6 3.30350614 5.11997802 0 2 C0 1.34 0 0.68 0 0 Z " fill="#343435" transform="translate(291,163)"/>
<path d="M0 0 C2.45823172 3.68734758 3.01242616 6.69699971 4 11 C3.34 11 2.68 11 2 11 C1.47007308 9.54494642 0.9513211 8.08581873 0.4375 6.625 C0.14746094 5.81289062 -0.14257812 5.00078125 -0.44140625 4.1640625 C-1 2 -1 2 0 0 Z " fill="#39393A" transform="translate(771,142)"/>
<path d="M0 0 C2.96404505 2.80804268 5.44499019 5.18315774 7 9 C3.64564078 7.61198929 1.88709697 6.11371 0 3 C0 2.01 0 1.02 0 0 Z " fill="#494A4B" transform="translate(349,69)"/>
<path d="M0 0 C0.33 0 0.66 0 1 0 C1.144375 1.11375 1.28875 2.2275 1.4375 3.375 C1.78372035 6.82142047 1.78372035 6.82142047 3 9 C2.34 9.66 1.68 10.32 1 11 C-0.59555725 7.50971852 -1.32049797 4.84597567 -1 1 C-0.67 0.67 -0.34 0.34 0 0 Z " fill="#58A0FE" transform="translate(120,97)"/>
<path d="M0 0 C3.77545388 1.09068668 6.47043472 1.9083091 9 5 C5.65626525 4.44271087 2.96687001 3.64826111 0 2 C0 1.34 0 0.68 0 0 Z " fill="#3D3E3F" transform="translate(546,97)"/>
<path d="M0 0 C1 2 1 2 0.375 4.0625 C-1 6 -1 6 -3.625 6.75 C-4.800625 6.87375 -4.800625 6.87375 -6 7 C-4.02 4.69 -2.04 2.38 0 0 Z " fill="#5AA5FE" transform="translate(135,17)"/>
</svg>
